<svg width="248" height="48" viewBox="0 0 248 48" fill="none" xmlns="http://www.w3.org/2000/svg">
<path d="M58.96 33.24C58.64 33.24 58.336 33.208 58.048 33.144C57.76 33.096 57.504 33.032 57.28 32.952V29.976C57.472 30.04 57.664 30.096 57.856 30.144C58.032 30.192 58.232 30.216 58.456 30.216C58.808 30.216 59.136 30.144 59.44 30C59.76 29.856 60.072 29.568 60.376 29.136C60.696 28.688 61.024 28.024 61.36 27.144C61.792 26.056 62.28 24.584 62.824 22.728C63.384 20.872 64.016 18.584 64.72 15.864H74.8L71.152 33H67.6L70.6 18.888H67.408C67.104 20.104 66.792 21.296 66.472 22.464C66.152 23.616 65.84 24.68 65.536 25.656C65.232 26.616 64.944 27.44 64.672 28.128C64.144 29.488 63.608 30.544 63.064 31.296C62.536 32.032 61.944 32.544 61.288 32.832C60.632 33.104 59.856 33.24 58.96 33.24ZM75.3115 33L78.9355 15.864H82.2235L80.4955 23.976C80.3675 24.584 80.2075 25.28 80.0155 26.064C79.8395 26.832 79.6715 27.512 79.5115 28.104H79.6315L88.5835 15.864H92.9275L89.3035 33H86.0635L87.7675 24.936C87.9115 24.232 88.0635 23.528 88.2235 22.824C88.3835 22.12 88.5595 21.368 88.7515 20.568L88.6555 20.544L79.7035 33H75.3115ZM93.4287 33L97.0527 15.864H100.629L98.9247 23.88L105.261 15.864H109.293L102.477 24.336L105.933 33H101.973L98.7807 24.576L97.0047 33H93.4287ZM107.702 33L111.326 15.864H116.318C117.95 15.864 119.262 16.16 120.254 16.752C121.246 17.328 121.742 18.304 121.742 19.68C121.742 20.848 121.414 21.808 120.758 22.56C120.102 23.312 119.182 23.816 117.998 24.072V24.168C118.782 24.376 119.406 24.76 119.87 25.32C120.334 25.864 120.566 26.56 120.566 27.408C120.566 28.704 120.27 29.768 119.678 30.6C119.086 31.416 118.278 32.024 117.254 32.424C116.246 32.808 115.102 33 113.822 33H107.702ZM115.214 22.656C116.062 22.656 116.742 22.488 117.254 22.152C117.782 21.8 118.046 21.232 118.046 20.448C118.046 19.376 117.382 18.84 116.054 18.84H114.278L113.462 22.656H115.214ZM114.014 30C114.894 30 115.598 29.784 116.126 29.352C116.67 28.904 116.942 28.264 116.942 27.432C116.942 26.824 116.766 26.36 116.414 26.04C116.062 25.704 115.526 25.536 114.806 25.536H112.862L111.902 30H114.014ZM122.585 33L126.209 15.864H129.497L127.769 23.976C127.641 24.584 127.481 25.28 127.289 26.064C127.113 26.832 126.945 27.512 126.785 28.104H126.905L135.857 15.864H140.201L136.577 33H133.337L135.041 24.936C135.185 24.232 135.337 23.528 135.497 22.824C135.657 22.12 135.833 21.368 136.025 20.568L135.929 20.544L126.977 33H122.585ZM137.774 37.992L139.454 29.976H140.966C142.198 28.216 143.35 26.2 144.422 23.928C145.51 21.64 146.566 18.952 147.59 15.864H156.566L153.566 29.976H155.75L154.046 37.992H150.494L151.574 33H142.382L141.302 37.992H137.774ZM144.926 29.976H149.894L152.27 18.888H149.918C149.55 19.96 149.11 21.144 148.598 22.44C148.102 23.72 147.542 25.016 146.918 26.328C146.31 27.64 145.646 28.856 144.926 29.976ZM155.912 33L164.888 15.864H169.256L170.984 33H167.504L167.216 28.92H161.672L159.656 33H155.912ZM163.136 25.872H167.048L166.736 21.456C166.704 20.992 166.672 20.52 166.64 20.04C166.608 19.56 166.6 19.072 166.616 18.576H166.568C166.408 19.008 166.232 19.44 166.04 19.872C165.848 20.288 165.632 20.744 165.392 21.24L163.136 25.872ZM174.347 33L177.323 18.888H173.195L173.843 15.864H185.675L185.027 18.888H180.899L177.923 33H174.347ZM191.308 33.24C189.228 33.24 187.644 32.648 186.556 31.464C185.484 30.264 184.948 28.68 184.948 26.712C184.948 25.368 185.124 24.04 185.476 22.728C185.844 21.416 186.396 20.224 187.132 19.152C187.884 18.08 188.828 17.224 189.964 16.584C191.116 15.928 192.468 15.6 194.02 15.6C196.1 15.6 197.66 16.184 198.7 17.352C199.756 18.52 200.284 20.072 200.284 22.008C200.284 23.4 200.108 24.768 199.756 26.112C199.404 27.44 198.86 28.648 198.124 29.736C197.404 30.808 196.476 31.664 195.34 32.304C194.22 32.928 192.876 33.24 191.308 33.24ZM191.572 30.192C192.5 30.192 193.348 29.864 194.116 29.208C194.884 28.536 195.492 27.592 195.94 26.376C196.404 25.16 196.636 23.736 196.636 22.104C196.636 21.048 196.388 20.208 195.892 19.584C195.412 18.944 194.692 18.624 193.732 18.624C192.996 18.624 192.308 18.84 191.668 19.272C191.044 19.688 190.5 20.272 190.036 21.024C189.588 21.776 189.236 22.64 188.98 23.616C188.724 24.576 188.596 25.608 188.596 26.712C188.596 27.848 188.86 28.712 189.388 29.304C189.916 29.896 190.644 30.192 191.572 30.192ZM201.663 33L205.287 15.864H210.063C211.455 15.864 212.567 16.072 213.399 16.488C214.247 16.904 214.855 17.488 215.223 18.24C215.607 18.992 215.799 19.864 215.799 20.856C215.799 22.216 215.471 23.344 214.815 24.24C214.159 25.136 213.271 25.808 212.151 26.256C211.031 26.688 209.759 26.904 208.335 26.904H206.511L205.239 33H201.663ZM208.623 23.928C209.695 23.928 210.559 23.664 211.215 23.136C211.871 22.608 212.199 21.88 212.199 20.952C212.199 19.544 211.439 18.84 209.919 18.84H208.239L207.159 23.928H208.623Z" fill="black"/>
<path d="M12.0898 0.937718V3.75003C12.0898 3.99876 12.1886 4.23724 12.3644 4.41308L14.9015 6.95101V14.6252L12.746 14.6252C12.3875 14.6252 12.0345 14.6461 11.6866 14.6853L10.8608 9.2347C10.7915 8.77643 10.3975 8.43757 9.93423 8.43757H4.1371L1.59998 5.89964C1.23414 5.53368 0.640506 5.53368 0.274661 5.89964C0.0915556 6.08281 -9.53674e-07 6.32275 -9.53674e-07 6.5627C-9.53674e-07 6.80265 0.0915556 7.04259 0.274661 7.22539L3.08607 10.0381C3.25489 10.2069 3.49293 10.3113 3.74452 10.3124C3.74598 10.3124 3.74745 10.3124 3.74891 10.3124H9.1282L9.8511 15.0835C6.09597 16.3063 3.37391 19.8407 3.37391 24C3.37391 28.1589 6.09597 31.6936 9.8511 32.9164L9.1282 37.6875H3.74891C3.50025 37.6875 3.26185 37.786 3.08607 37.9619L0.274661 40.7745C-0.0915499 41.1405 -0.0915499 41.7339 0.274661 42.1003C0.640506 42.4662 1.23377 42.4662 1.59998 42.1003L4.1371 39.5623H9.93423C10.3979 39.5623 10.7915 39.2235 10.8611 38.7652L11.6866 33.3146C12.0345 33.3538 12.3879 33.3751 12.746 33.3751H14.9015V41.0489L12.3644 43.5868C12.1886 43.7627 12.0898 44.0012 12.0898 44.2499V47.0622C12.0898 47.5802 12.5094 48 13.0273 48C13.5447 48 13.9644 47.5802 13.9644 47.0622V44.6382L16.5015 42.1003C16.6769 41.9244 16.7758 41.686 16.7758 41.4372V33.3751H20.5247V38.6249C20.5247 38.9799 20.725 39.3045 21.0425 39.4634L26.3867 42.1362L29.0582 47.4816C29.29 47.9447 29.8529 48.1322 30.3158 47.9007C30.7787 47.6692 30.9665 47.1062 30.7347 46.6431L27.9233 41.0181C27.8325 40.8368 27.6856 40.6895 27.5044 40.5987L22.399 38.0454V33.256C23.7324 32.9116 24.7794 31.8497 25.1046 30.5085C26.234 30.3664 27.2967 29.9371 28.206 29.2535C28.8842 29.8814 29.7265 30.3041 30.6292 30.4752L32.6914 34.048C33.7377 35.8613 35.5881 37.2164 37.7682 37.7651C44.4882 39.4568 49.8242 33.1292 47.4087 27.1101C47.256 26.7295 46.8737 26.4921 46.465 26.5247C46.0559 26.5573 45.7157 26.8518 45.6253 27.2519C44.9412 30.27 41.7485 31.7189 38.8401 30.4657C37.4928 29.8854 36.508 28.8095 36.0994 27.4856C36.3356 26.9024 36.4568 26.2859 36.4568 25.647L36.4568 22.3526C36.4568 21.7137 36.3356 21.0975 36.0997 20.5143C36.508 19.1904 37.4924 18.1145 38.8401 17.5339C41.7504 16.2803 44.9415 17.7313 45.6253 20.7477C45.7157 21.1477 46.0559 21.4426 46.465 21.4752C46.8737 21.5075 47.256 21.2704 47.4087 20.8898C49.8085 14.9099 44.5296 8.53282 37.7678 10.2348C35.5881 10.7835 33.7377 12.1386 32.691 13.9519L30.6289 17.5247C29.7254 17.6962 28.8839 18.1189 28.2057 18.7464C27.2967 18.0632 26.234 17.6335 25.1046 17.4914C24.7794 16.1503 23.732 15.0883 22.399 14.7439V9.95454L27.504 7.40123C27.6853 7.31038 27.8325 7.16348 27.9233 6.98178L30.7347 1.3568C30.9662 0.893759 30.7783 0.330711 30.3158 0.0991912C29.8525 -0.132329 29.2896 0.0552317 29.0582 0.518272L26.3863 5.86374L21.0425 8.53648C20.725 8.69547 20.5244 9.02004 20.5244 9.37501L20.5244 14.6249H16.7758L16.7758 6.5627C16.7758 6.31396 16.6769 6.07548 16.5011 5.89964L13.964 3.36172V0.937718C13.964 0.419729 13.5444 0.000282317 13.0269 0.000282317C12.5094 0.000282317 12.0898 0.419729 12.0898 0.937718ZM25.2104 19.4062C27.3253 19.8333 28.9593 21.7078 28.9593 24C28.9593 26.2862 27.3311 28.1655 25.2104 28.5937V19.4062ZM38.0985 32.1881C40.8986 33.3941 44.1546 32.7684 46.0936 30.443C45.8571 34.2704 42.2788 36.9673 38.2252 35.9467C36.5344 35.521 35.1087 34.4876 34.3144 33.1106L32.7573 30.4125C33.5392 30.2158 34.254 29.8305 34.8447 29.293C35.5537 30.5613 36.6813 31.5775 38.0985 32.1881ZM34.5825 25.647C34.5825 27.2999 33.2561 28.6875 31.5433 28.6875C30.8043 28.6875 30.088 28.4161 29.5317 27.9252C30.3766 26.7972 30.8336 25.4334 30.8336 24C30.8336 22.5665 30.3766 21.203 29.5317 20.0747C30.0872 19.5842 30.8043 19.3124 31.5433 19.3124C33.2594 19.3124 34.5825 20.7034 34.5825 22.3526L34.5825 25.647ZM38.2252 12.0532C42.255 11.0389 45.856 13.7061 46.0936 17.557C44.156 15.2337 40.9008 14.6047 38.0985 15.8121C36.6813 16.4224 35.5537 17.4386 34.8451 18.7072C34.254 18.1695 33.5392 17.7841 32.7573 17.5874L34.3144 14.8894C35.1087 13.5127 36.5344 12.4789 38.2252 12.0532ZM23.3361 18.375V23.0625H19.1188C18.601 23.0625 18.1817 23.4823 18.1817 24C18.1817 24.5179 18.601 24.9374 19.1188 24.9374H23.3361L23.3361 29.6249C23.3361 30.6587 22.4953 31.4998 21.4619 31.4998L12.746 31.4998C8.92935 31.4998 5.77187 28.6318 5.30898 24.9374H10.6839C11.2017 24.9374 11.6214 24.5179 11.6214 24C11.6214 23.4823 11.2017 23.0625 10.6839 23.0625H5.30898C5.77187 19.3681 8.92935 16.5001 12.746 16.5001L21.4619 16.5001C22.4953 16.5001 23.3361 17.3412 23.3361 18.375Z" fill="black"/>
</svg>
