<svg width="126" height="126" viewBox="0 0 126 126" fill="none" xmlns="http://www.w3.org/2000/svg">
    <circle cx="63" cy="63" r="63" fill="#494DA6"/>
    <path d="M35.273 50.584C38.0596 50.584 40.289 51.42 41.961 53.092C43.6623 54.7347 44.513 56.9493 44.513 59.736C44.513 62.7573 43.6623 65.764 41.961 68.756C40.289 71.748 38.089 74.4613 35.361 76.896C32.633 79.3013 29.729 81.208 26.649 82.616L23.745 79.228C26.3263 78.084 28.9516 76.5293 31.621 74.564C34.2903 72.5693 36.3436 70.3253 37.781 67.832C35.9916 69.0933 33.8943 69.724 31.489 69.724C29.1423 69.724 27.2503 68.9907 25.813 67.524C24.405 66.028 23.701 64.092 23.701 61.716C23.701 59.6333 24.1996 57.756 25.197 56.084C26.2236 54.3827 27.617 53.048 29.377 52.08C31.137 51.0827 33.1023 50.584 35.273 50.584ZM32.985 65.368C34.1583 65.368 35.2143 65.104 36.153 64.576C37.121 64.0187 37.8836 63.2707 38.441 62.332C38.9983 61.364 39.277 60.3227 39.277 59.208C39.277 57.9467 38.8663 56.92 38.045 56.128C37.2236 55.336 36.1676 54.94 34.877 54.94C33.7036 54.94 32.6476 55.2187 31.709 55.776C30.7703 56.3333 30.0223 57.0813 29.465 58.02C28.937 58.9587 28.673 59.9853 28.673 61.1C28.673 62.332 29.069 63.3587 29.861 64.18C30.6823 64.972 31.7236 65.368 32.985 65.368ZM57.9845 50.584C60.7712 50.584 63.0005 51.42 64.6725 53.092C66.3739 54.7347 67.2245 56.9493 67.2245 59.736C67.2245 62.7573 66.3739 65.764 64.6725 68.756C63.0005 71.748 60.8005 74.4613 58.0725 76.896C55.3445 79.3013 52.4405 81.208 49.3605 82.616L46.4565 79.228C49.0378 78.084 51.6632 76.5293 54.3325 74.564C57.0018 72.5693 59.0552 70.3253 60.4925 67.832C58.7032 69.0933 56.6058 69.724 54.2005 69.724C51.8538 69.724 49.9618 68.9907 48.5245 67.524C47.1165 66.028 46.4125 64.092 46.4125 61.716C46.4125 59.6333 46.9112 57.756 47.9085 56.084C48.9352 54.3827 50.3285 53.048 52.0885 52.08C53.8485 51.0827 55.8138 50.584 57.9845 50.584ZM55.6965 65.368C56.8698 65.368 57.9258 65.104 58.8645 64.576C59.8325 64.0187 60.5952 63.2707 61.1525 62.332C61.7098 61.364 61.9885 60.3227 61.9885 59.208C61.9885 57.9467 61.5778 56.92 60.7565 56.128C59.9352 55.336 58.8792 54.94 57.5885 54.94C56.4152 54.94 55.3592 55.2187 54.4205 55.776C53.4818 56.3333 52.7338 57.0813 52.1765 58.02C51.6485 58.9587 51.3845 59.9853 51.3845 61.1C51.3845 62.332 51.7805 63.3587 52.5725 64.18C53.3938 64.972 54.4352 65.368 55.6965 65.368ZM73.8761 68.184C71.9107 68.184 70.4001 67.5827 69.3441 66.38C68.2881 65.1773 67.7601 63.5493 67.7601 61.496C67.7601 59.6187 68.1414 57.844 68.9041 56.172C69.6961 54.4707 70.7814 53.1213 72.1601 52.124C73.5681 51.0973 75.1667 50.584 76.9561 50.584C78.8627 50.584 80.3587 51.1707 81.4441 52.344C82.5294 53.488 83.0721 55.0573 83.0721 57.052C83.0721 58.988 82.6761 60.8213 81.8841 62.552C81.1214 64.2533 80.0361 65.6173 78.6281 66.644C77.2494 67.6707 75.6654 68.184 73.8761 68.184ZM74.4921 64.576C75.4014 64.576 76.1787 64.2093 76.8241 63.476C77.4987 62.7427 77.9974 61.8333 78.3201 60.748C78.6721 59.6627 78.8481 58.5773 78.8481 57.492C78.8481 56.4067 78.6281 55.5853 78.1881 55.028C77.7481 54.4707 77.1321 54.192 76.3401 54.192C74.9321 54.192 73.8467 54.94 73.0841 56.436C72.3507 57.9027 71.9841 59.5307 71.9841 61.32C71.9841 63.4907 72.8201 64.576 74.4921 64.576ZM94.9961 51.2H99.1321L75.6801 82H71.5001L94.9961 51.2ZM93.5441 82.616C91.5787 82.616 90.0681 82.0147 89.0121 80.812C87.9561 79.6093 87.4281 77.9813 87.4281 75.928C87.4281 74.0507 87.8094 72.276 88.5721 70.604C89.3641 68.9027 90.4494 67.5533 91.8281 66.556C93.2361 65.5293 94.8347 65.016 96.6241 65.016C98.5307 65.016 100.027 65.6027 101.112 66.776C102.197 67.92 102.74 69.4893 102.74 71.484C102.74 73.42 102.344 75.2533 101.552 76.984C100.789 78.6853 99.7041 80.0493 98.2961 81.076C96.9174 82.1027 95.3334 82.616 93.5441 82.616ZM94.1601 79.008C95.0694 79.008 95.8467 78.6413 96.4921 77.908C97.1667 77.1747 97.6654 76.2653 97.9881 75.18C98.3401 74.0947 98.5161 73.0093 98.5161 71.924C98.5161 70.8387 98.2961 70.0173 97.8561 69.46C97.4161 68.9027 96.8001 68.624 96.0081 68.624C94.6001 68.624 93.5147 69.372 92.7521 70.868C92.0187 72.3347 91.6521 73.9627 91.6521 75.752C91.6521 77.9227 92.4881 79.008 94.1601 79.008Z" fill="white"/>
</svg>
