<svg width="126" height="126" viewBox="0 0 126 126" fill="none" xmlns="http://www.w3.org/2000/svg">
    <circle cx="63" cy="63" r="63" fill="#494DA6"/>
    <path d="M90.2812 56.2185V43.0312C90.2791 41.1671 89.5376 39.3799 88.2195 38.0618C86.9013 36.7436 85.1141 36.0021 83.25 36H41.0625C39.1984 36.0021 37.4112 36.7436 36.093 38.0618C34.7749 39.3799 34.0334 41.1671 34.0312 43.0312V56.2185C32.0201 56.7408 30.2389 57.9152 28.9666 59.558C27.6943 61.2007 27.0026 63.219 27 65.2969V81.7031C27.0014 82.9459 27.4957 84.1374 28.3745 85.0161C29.2533 85.8949 30.4447 86.3892 31.6875 86.3906H34.0312V93.4219H38.7188V86.3906H85.5938V93.4219H90.2812V86.3906H92.625C93.8678 86.3892 95.0592 85.8949 95.938 85.0161C96.8168 84.1374 97.3111 82.9459 97.3125 81.7031V65.2969C97.3099 63.219 96.6182 61.2007 95.3459 59.558C94.0736 57.9152 92.2924 56.7408 90.2812 56.2185ZM41.0625 81.7031H31.6875V65.2969C31.6875 64.0537 32.1814 62.8614 33.0604 61.9823C33.9395 61.1032 35.1318 60.6094 36.375 60.6094C37.6182 60.6094 38.8105 61.1032 39.6896 61.9823C40.5686 62.8614 41.0625 64.0537 41.0625 65.2969V81.7031ZM78.5625 81.7031H45.75V67.6406H78.5625V81.7031ZM78.8591 62.9531H45.4534C45.0314 61.333 44.1848 59.8548 43.0009 58.6709C41.8171 57.4871 40.3389 56.6405 38.7188 56.2185V43.0312C38.7195 42.4099 38.9667 41.8142 39.406 41.3748C39.8454 40.9354 40.4411 40.6882 41.0625 40.6875H83.25C83.8714 40.6882 84.4671 40.9354 84.9065 41.3748C85.3458 41.8142 85.593 42.4099 85.5938 43.0312V56.2185C83.9736 56.6405 82.4954 57.4871 81.3116 58.6709C80.1277 59.8548 79.2811 61.333 78.8591 62.9531ZM92.625 81.7031H83.25V65.2969C83.25 64.0537 83.7439 62.8614 84.6229 61.9823C85.502 61.1032 86.6943 60.6094 87.9375 60.6094C89.1807 60.6094 90.373 61.1032 91.2521 61.9823C92.1311 62.8614 92.625 64.0537 92.625 65.2969L92.6279 81.7031H92.625Z" fill="white"/>
</svg>