<svg width="126" height="126" viewBox="0 0 126 126" fill="none" xmlns="http://www.w3.org/2000/svg">
    <circle cx="63" cy="63" r="63" fill="#494DA6"/>
    <path d="M63 65.5386V90.9232C63 92.2697 62.4651 93.561 61.513 94.5131C60.5609 95.4652 59.2696 96.0001 57.9231 96.0001C56.5766 96.0001 55.2853 95.4652 54.3332 94.5131C53.3811 93.561 52.8462 92.2697 52.8462 90.9232" stroke="white" stroke-width="4" stroke-linecap="round" stroke-linejoin="round"/>
    <path d="M96 65.5386C96 47.3124 81.2262 32.5386 63 32.5386C44.7738 32.5386 30 47.3124 30 65.5386C31 64.5385 32.1873 63.7451 33.4939 63.2039C34.8006 62.6626 36.2011 62.384 37.6154 62.384C39.0297 62.384 40.4302 62.6626 41.7368 63.2039C43.0435 63.7451 44.2307 64.5385 45.2308 65.5386C47.3446 63.4251 50.1498 62.145 53.1315 61.9331C56.1131 61.7212 59.0712 62.5918 61.4626 64.3852L63 65.5386L64.5374 64.3852C66.9288 62.5918 69.8869 61.7212 72.8685 61.9331C75.8502 62.145 78.6554 63.4251 80.7692 65.5386V65.5386C81.7693 64.5385 82.9565 63.7451 84.2632 63.2039C85.5698 62.6626 86.9703 62.384 88.3846 62.384C89.7989 62.384 91.1994 62.6626 92.5061 63.2039C93.8127 63.7451 95 64.5385 96 65.5386V65.5386Z" stroke="white" stroke-width="4" stroke-linecap="round" stroke-linejoin="round"/>
    <path d="M63 32.5385V30" stroke="white" stroke-width="4" stroke-linecap="round" stroke-linejoin="round"/>
</svg>
