<svg width="126" height="126" viewBox="0 0 126 126" fill="none" xmlns="http://www.w3.org/2000/svg">
    <circle cx="63" cy="63" r="63" fill="#494DA6"/>
    <path d="M61.4227 53.9627C61.9274 54.442 62.7665 54.3451 63.1501 53.7665L70.702 42.3692C71.0483 41.8468 70.9053 41.1423 70.3829 40.796C69.8611 40.4503 69.1566 40.5933 68.8103 41.1151L62.0048 51.3861L58.2232 47.7954C57.7688 47.364 57.0507 47.3829 56.6187 47.8374C56.1873 48.2918 56.2062 49.0098 56.6607 49.4412C56.6601 49.4412 61.4186 53.9592 61.4227 53.9627Z" fill="white"/>
    <path d="M62.1966 71.2692C62.4135 71.3685 62.6534 71.4211 62.8921 71.4211H62.9016C63.1445 71.4199 63.388 71.3644 63.6054 71.2604C80.8593 63.0548 83.7834 45.3507 84.2679 40.12C84.379 38.9257 83.7065 37.8135 82.5949 37.3525C79.1602 35.9265 76.8253 32.7377 76.5015 29.0306C76.4016 27.8894 75.4265 27 74.2777 27H74.2641L51.0191 27.1365C49.8472 27.143 48.8951 28.0336 48.8053 29.2078C48.5193 32.9162 46.2186 36.1281 42.8011 37.5901C41.7007 38.0605 41.0447 39.1786 41.17 40.3724C41.7161 45.5971 44.8476 63.2664 62.1966 71.2692ZM43.6935 39.6762C47.884 37.8844 50.707 33.9503 51.0657 29.4052L74.244 29.2693C74.6559 33.8044 77.5191 37.7024 81.725 39.4481C81.9129 39.5267 82.027 39.7123 82.0087 39.9108C81.5536 44.8129 78.8311 61.3416 62.888 69.0874C46.8533 61.5301 43.9393 45.0333 43.4263 40.1366C43.4057 39.9386 43.5132 39.7536 43.6935 39.6762Z" fill="white"/>
    <path d="M46.5267 45.9663C46.6638 46.4709 47.3038 46.9331 47.9196 46.7635C48.5235 46.5968 48.8811 45.9757 48.7168 45.3712C48.4278 44.3062 48.1849 43.2265 47.994 42.1569C51.0765 40.1482 53.3641 37.1502 54.4864 33.6488L70.8727 33.5524C72.0357 37.0397 74.3582 40.0117 77.4643 41.9837C77.2864 43.0563 77.0559 44.1396 76.7788 45.2086C76.6216 45.8156 76.9862 46.4349 77.5925 46.5921C78.2 46.7493 78.8188 46.3847 78.976 45.7777C79.301 44.5225 79.5658 43.2484 79.762 41.9908C79.8719 41.2882 79.5504 40.5973 78.9441 40.2309C76.0507 38.4834 73.912 35.742 72.9221 32.5117C72.6993 31.7854 72.0144 31.2808 71.2544 31.2808H71.2438L54.0881 31.3812C53.3234 31.386 52.639 31.9007 52.4245 32.6323C51.473 35.8737 49.3663 38.6401 46.4936 40.4218C45.8914 40.7947 45.5788 41.4891 45.6964 42.1912C45.9079 43.4458 46.1869 44.7158 46.5267 45.9663Z" fill="white"/>
    <path d="M76.682 49.3311C76.1029 49.0912 75.4398 49.3678 75.2005 49.9469C72.5784 56.3021 68.4274 61.1339 62.8594 64.3139C57.2481 61.1953 53.0369 56.4044 50.3409 50.0692C50.0951 49.493 49.4285 49.2247 48.8523 49.47C48.2755 49.7152 48.0072 50.3819 48.2525 50.958C51.1949 57.8712 55.8304 63.0829 62.0302 66.4472C62.2914 66.5897 62.5775 66.66 62.8629 66.66C63.1554 66.66 63.4474 66.5861 63.7133 66.4378C69.8664 63.0049 74.437 57.7476 77.2984 50.8121C77.5378 50.2329 77.2618 49.5699 76.682 49.3311Z" fill="white"/>
    <path d="M31.2801 85.0601C29.0669 85.0601 27.2656 86.8607 27.2656 89.0745C27.2656 91.2882 29.0669 93.0889 31.2801 93.0889C33.4938 93.0889 35.2951 91.2882 35.2951 89.0745C35.2951 86.8607 33.4944 85.0601 31.2801 85.0601ZM31.2801 90.8196C30.318 90.8196 29.5349 90.0372 29.5349 89.0745C29.5349 88.1124 30.318 87.3294 31.2801 87.3294C32.2427 87.3294 33.0258 88.1124 33.0258 89.0745C33.0258 90.0372 32.2427 90.8196 31.2801 90.8196Z" fill="white"/>
    <path d="M100.645 73.9519C99.1909 71.815 96.2626 71.2489 94.118 72.6896L79.2848 82.6173L76.1184 82.4394L76.0374 81.6286C75.7219 78.4533 73.2948 75.9234 70.1355 75.4766C70.1154 75.4737 70.0959 75.4713 70.0758 75.4695L54.0925 74.0689C53.5518 73.9844 51.8209 73.4874 47.0648 70.7595C44.5928 69.3418 41.8076 68.5416 38.978 68.4329V65.4645C38.978 63.9747 37.7665 62.7632 36.2767 62.7632H26.7013C25.2121 62.7632 24 63.9753 24 65.4645V94.7001C24 96.1894 25.2121 97.4014 26.7013 97.4014H36.2767C37.7659 97.4014 38.978 96.1894 38.978 94.7001V93.8946L52.9496 99.1856C52.9803 99.1974 54.115 99.6217 56.2011 99.4249C56.207 99.4243 79.416 96.0783 79.416 96.0783C79.4219 96.0777 79.4272 96.0765 79.4331 96.0753C81.4164 95.7591 83.2868 94.9206 84.8428 93.6518C84.857 93.6399 84.8706 93.6281 84.8842 93.6163L99.8776 80.1311C101.645 78.562 101.975 75.9057 100.645 73.9519ZM98.3653 78.4391L83.3879 91.9102C82.148 92.9154 80.66 93.5802 79.0833 93.8332L55.8855 97.1775C55.8802 97.178 55.8725 97.1792 55.8654 97.1804C55.8619 97.181 55.8577 97.1816 55.8542 97.1822C55.1604 97.2915 54.4377 97.2454 53.7055 97.0451L38.978 91.4681V78.51C38.978 77.883 38.4698 77.3754 37.8434 77.3754C37.2163 77.3754 36.7087 77.883 36.7087 78.51V94.7001C36.7087 94.9383 36.5149 95.1321 36.2767 95.1321H26.7013C26.4631 95.1321 26.2693 94.9383 26.2693 94.7001V65.4645C26.2693 65.2263 26.4631 65.0325 26.7013 65.0325H36.2767C36.5149 65.0325 36.7087 65.2263 36.7087 65.4645V73.3846C36.7087 74.0116 37.2169 74.5193 37.8434 74.5193C38.4704 74.5193 38.978 74.011 38.978 73.3846V70.7046C41.4122 70.8121 43.8068 71.5071 45.9354 72.7286C51.6719 76.0185 53.274 76.2455 53.8006 76.3199C53.8207 76.3229 53.8402 76.3247 53.8603 76.327L69.8453 77.7276C71.9527 78.039 73.5684 79.7316 73.7794 81.8531L73.8396 82.4577L52.439 83.7791C52.4242 83.7779 52.4095 83.7767 52.3965 83.7755C51.7027 83.7129 51.0762 83.3849 50.6313 82.8519C50.23 82.3702 49.5143 82.3052 49.0333 82.7071C48.5516 83.1083 48.4866 83.824 48.8885 84.305C49.7212 85.3038 50.896 85.9012 52.1944 86.036C52.8952 86.1093 75.0878 84.6543 75.0878 84.6543L79.5365 84.9043C79.7824 84.9185 80.0264 84.8511 80.2309 84.714L95.3821 74.5742C96.4949 73.8266 98.0142 74.1198 98.7689 75.2284C99.4586 76.2425 99.2872 77.6206 98.3653 78.4391Z" fill="white"/>
</svg>
