<svg width="27" height="26" viewBox="0 0 27 26" fill="none" xmlns="http://www.w3.org/2000/svg">
<path d="M24.9429 0.37098C24.8254 0.25337 24.6858 0.160072 24.5322 0.0964176C24.3786 0.0327632 24.214 0 24.0477 0C23.8814 0 23.7168 0.0327632 23.5632 0.0964176C23.4096 0.160072 23.27 0.25337 23.1525 0.37098L17.8217 5.70179C16.4204 5.27764 14.9641 5.0627 13.5 5.06392C7.61231 5.06392 2.50762 8.49292 0 13.5014C1.07595 15.651 2.63761 17.5207 4.56131 18.9622L0.369563 23.1539C0.138904 23.3925 0.011183 23.7121 0.0139091 24.044C0.0166352 24.3758 0.14959 24.6933 0.384138 24.9281C0.618685 25.1629 0.936058 25.2961 1.2679 25.2992C1.59974 25.3022 1.9195 25.1748 2.15831 24.9444L24.9396 2.1631C25.0572 2.04557 25.1505 1.90601 25.2141 1.75241C25.2778 1.5988 25.3105 1.43416 25.3105 1.26789C25.3105 1.10161 25.2778 0.936971 25.2141 0.783365C25.1505 0.629759 25.0572 0.490202 24.9396 0.372667L24.9429 0.37098ZM10.9704 8.43723C11.4997 8.43715 12.0157 8.60301 12.4459 8.91146C12.876 9.21991 13.1986 9.65544 13.3684 10.1568L10.1587 13.3664C9.59015 13.1742 9.10835 12.7862 8.79935 12.2716C8.49034 11.7571 8.37424 11.1494 8.47177 10.5572C8.56929 9.96496 8.87409 9.42665 9.33177 9.03833C9.78945 8.65002 10.3702 8.43698 10.9704 8.43723ZM2.90587 13.4997C3.9781 11.8006 5.43479 10.3775 7.15838 9.34511C6.88838 10.0854 6.75072 10.8673 6.75169 11.6553C6.75169 13.1032 7.20731 14.443 7.98356 15.5416L6.37706 17.1481C4.99099 16.1725 3.81134 14.9326 2.90587 13.4997Z" fill="black"/>
<path d="M20.251 11.6537C20.251 10.9382 20.1396 10.248 19.932 9.60004L11.4473 18.0848C12.4594 18.408 13.5334 18.4878 14.5822 18.3176C15.6309 18.1474 16.6247 17.7321 17.4826 17.1054C18.3405 16.4787 19.0384 15.6583 19.5194 14.711C20.0005 13.7637 20.2511 12.7162 20.251 11.6537Z" fill="black"/>
<path d="M21.8861 7.64587L20.0568 9.47512L20.1564 9.53756C21.7426 10.5501 23.0876 11.9051 24.0967 13.4998C23.0907 15.0943 21.7453 16.4472 20.1564 17.4621C18.738 18.3683 17.1496 18.9754 15.4884 19.2462C13.8271 19.5169 12.1281 19.4455 10.4954 19.0365L8.46875 21.0632C10.0831 21.6427 11.7856 21.9385 13.5009 21.9373C19.3886 21.9373 24.4932 18.5083 27.0009 13.4998C25.8236 11.1439 24.0627 9.1286 21.8861 7.64587Z" fill="black"/>
</svg>
