<svg width="16" height="16" viewBox="0 0 16 16" fill="none" xmlns="http://www.w3.org/2000/svg">
<path d="M10.6673 11.3711L12.0451 9.99278C12.2307 9.80944 12.4654 9.68394 12.7209 9.63151C12.9764 9.57908 13.2416 9.60198 13.4844 9.69743L15.1635 10.3681C15.4088 10.4677 15.6191 10.6377 15.768 10.8567C15.9169 11.0758 15.9976 11.3339 16 11.5988V14.6753C15.9986 14.8555 15.9607 15.0335 15.8887 15.1986C15.8167 15.3638 15.712 15.5126 15.581 15.6362C15.45 15.7598 15.2953 15.8556 15.1263 15.9178C14.9573 15.9801 14.7775 16.0074 14.5976 15.9983C2.83136 15.2661 0.457192 5.29791 0.00819117 1.48294C-0.0126518 1.2956 0.00639187 1.10596 0.0640691 0.926515C0.121746 0.747064 0.21675 0.581865 0.34283 0.441784C0.468911 0.301703 0.62321 0.189915 0.795577 0.113775C0.967944 0.0376351 1.15447 -0.00113167 1.34289 2.51474e-05H4.31368C4.57878 0.000810161 4.83758 0.0809193 5.0568 0.230049C5.27602 0.379178 5.44563 0.590508 5.54382 0.836857L6.21424 2.51667C6.31281 2.75854 6.33796 3.02409 6.28654 3.28017C6.23513 3.53624 6.10944 3.77149 5.92516 3.95652L4.5474 5.33483C4.5474 5.33483 5.34084 10.7065 10.6673 11.3711Z" fill="#8F8383"/>
</svg>
