<svg width="19" height="18" viewBox="0 0 19 18" fill="none" xmlns="http://www.w3.org/2000/svg">
<path d="M12.6675 12.7925L14.3036 11.2419C14.5239 11.0356 14.8027 10.8944 15.1061 10.8355C15.4095 10.7765 15.7244 10.8022 16.0127 10.9096L18.0067 11.6641C18.2979 11.7762 18.5477 11.9675 18.7245 12.2138C18.9013 12.4602 18.9971 12.7507 19 13.0486V16.5098C18.9983 16.7124 18.9534 16.9127 18.8678 17.0985C18.7823 17.2842 18.6581 17.4517 18.5025 17.5907C18.3469 17.7298 18.1632 17.8376 17.9625 17.9076C17.7618 17.9776 17.5483 18.0083 17.3347 17.9981C3.36224 17.1743 0.542915 5.96015 0.00972701 1.66831C-0.015024 1.45755 0.00759034 1.24421 0.0760821 1.04233C0.144574 0.840448 0.257391 0.654598 0.407111 0.497007C0.556831 0.339416 0.740062 0.213655 0.944748 0.127997C1.14943 0.0423395 1.37094 -0.00127313 1.59468 2.82909e-05H5.12249C5.4373 0.000911431 5.74463 0.0910343 6.00495 0.258805C6.26528 0.426576 6.46669 0.664322 6.58328 0.941464L7.37941 2.83126C7.49646 3.10335 7.52632 3.4021 7.46527 3.69019C7.40422 3.97827 7.25495 4.24292 7.03613 4.45108L5.40004 6.00168C5.40004 6.00168 6.34225 12.0449 12.6675 12.7925Z" fill="#8F8383"/>
</svg>
