<svg width="16" height="16" viewBox="0 0 16 16" fill="none" xmlns="http://www.w3.org/2000/svg">
<circle cx="8" cy="8" r="3" fill="white"/>
<path fill-rule="evenodd" clip-rule="evenodd" d="M7 1C7 0.447715 7.44772 0 8 0C8.55228 0 9 0.447715 9 1V2C9 2.02774 8.99887 2.05523 8.99665 2.0824C11.5118 2.5029 13.4971 4.48812 13.9176 7.00331C13.9447 7.0011 13.9721 6.99998 13.9998 6.99998H14.9998C15.5521 6.99998 15.9998 7.44769 15.9998 7.99998C15.9998 8.55226 15.5521 8.99998 14.9998 8.99998H13.9998C13.9721 8.99998 13.9447 8.99885 13.9176 8.99664C13.4971 11.5119 11.5118 13.4972 8.99646 13.9176C8.99867 13.9448 8.9998 13.9723 8.9998 14V15C8.9998 15.5523 8.55209 16 7.9998 16C7.44752 16 6.9998 15.5523 6.9998 15V14C6.9998 13.9723 7.00094 13.9448 7.00316 13.9176C4.48804 13.497 2.50289 11.5118 2.0824 8.99665C2.05522 8.99887 2.02774 9 2 9H1C0.447715 9 0 8.55229 0 8C0 7.44772 0.447715 7 1 7H2C2.02774 7 2.05522 7.00113 2.0824 7.00335C2.5029 4.48814 4.48814 2.5029 7.00335 2.0824C7.00113 2.05523 7 2.02774 7 2V1ZM13 7.98174C12.9999 7.98781 12.9998 7.99389 12.9998 7.99998C12.9998 8.00607 12.9999 8.01215 13 8.01822C12.9901 10.7713 10.7553 13 8 13C5.23858 13 3 10.7614 3 8C3 5.23858 5.23858 3 8 3C10.7553 3 12.9901 5.22872 13 7.98174Z" fill="white"/>
</svg>
